<?xml version="1.0" standalone="no"?>
<!DOCTYPE svg PUBLIC "-//W3C//DTD SVG 20010904//EN"
 "http://www.w3.org/TR/2001/REC-SVG-20010904/DTD/svg10.dtd">
<svg version="1.0" xmlns="http://www.w3.org/2000/svg"
 width="500.000000pt" height="500.000000pt" viewBox="0 0 500.000000 500.000000"
 preserveAspectRatio="xMidYMid meet">

<g transform="translate(0.000000,500.000000) scale(0.100000,-0.100000)"
fill="#000000" stroke="none">
<path d="M1735 4674 c-224 -40 -421 -142 -583 -302 -197 -196 -308 -446 -319
-723 l-6 -126 -76 -19 c-154 -38 -323 -138 -450 -265 -127 -126 -207 -261
-268 -454 -27 -86 -28 -98 -28 -285 0 -185 2 -200 28 -285 112 -363 388 -630
744 -721 129 -32 192 -32 232 2 26 21 31 33 31 69 0 69 -33 100 -122 115 -209
36 -389 138 -517 292 -116 141 -179 305 -188 493 -11 232 61 434 215 597 140
149 300 233 502 263 103 16 136 61 120 161 -28 171 4 343 98 529 39 77 62 106
156 200 92 92 126 118 201 157 50 26 131 59 180 74 79 24 107 27 235 28 155 0
209 -9 340 -61 138 -55 279 -164 372 -287 33 -44 63 -86 65 -93 7 -17 56 -43
82 -43 11 0 62 14 113 31 179 61 391 48 550 -32 202 -102 337 -275 393 -504
32 -130 42 -140 162 -150 319 -26 586 -205 713 -478 54 -114 73 -207 74 -357
0 -162 -13 -221 -84 -365 -104 -209 -284 -362 -500 -425 -99 -29 -119 -39
-136 -72 -24 -46 -18 -96 15 -129 34 -33 57 -36 148 -14 160 38 347 146 474
275 130 133 212 277 269 472 27 95 30 119 30 248 0 229 -52 406 -174 590 -112
167 -274 302 -456 381 -86 37 -244 79 -296 79 -28 0 -30 4 -57 89 -95 301
-344 533 -663 618 -131 35 -325 37 -449 4 l-80 -21 -34 42 c-129 161 -330 302
-516 362 -169 56 -370 70 -540 40z"/>
<path d="M1481 2385 c-102 -29 -174 -94 -211 -193 -20 -53 -20 -71 -18 -855
l3 -802 25 -49 c31 -61 105 -128 168 -153 44 -17 101 -18 946 -21 985 -3 958
-4 1049 56 82 54 95 84 259 572 137 410 152 462 152 526 1 59 -4 79 -28 125
-54 101 -136 164 -235 178 l-46 6 -6 95 c-4 75 -11 106 -31 145 -33 64 -89
118 -153 147 -50 23 -54 23 -515 25 -256 2 -475 5 -488 8 -13 3 -58 39 -101
79 -130 121 -128 121 -446 123 -215 2 -281 -1 -324 -12z m545 -205 c15 -6 62
-44 104 -84 126 -120 101 -116 661 -116 l471 0 34 -34 c32 -32 34 -38 34 -100
l0 -65 -782 -3 -783 -3 -57 -28 c-33 -16 -76 -49 -102 -78 -38 -42 -52 -70
-95 -197 l-50 -147 2 402 2 401 24 26 c13 14 33 27 45 29 48 10 466 6 492 -3z
m1585 -649 c20 -21 29 -39 29 -63 0 -18 -63 -224 -141 -458 -119 -360 -145
-429 -170 -452 l-29 -28 -881 0 c-956 0 -921 -2 -947 55 -7 14 -12 34 -12 43
0 9 66 214 146 454 120 361 150 441 171 458 25 20 39 20 915 20 l890 0 29 -29z"/>
</g>
</svg>
